HIERARCHY
ROOT Hips
{
	OFFSET -3.958830 18.904000 13.208200
	CHANNELS 6 Xposition Yposition Zposition Zrotation Yrotation Xrotation 
	JOINT LHipJoint
	{
		OFFSET 0.000000 0.000000 0.000000
		CHANNELS 3 Zrotation Yrotation Xrotation
		JOINT LeftUpLeg
		{
			OFFSET 1.800000 -1.400000 0.085000
			CHANNELS 3 Zrotation Yrotation Xrotation
			JOINT LeftLeg
			{
				OFFSET 2.215000 -6.000000 0.000000
				CHANNELS 3 Zrotation Yrotation Xrotation
				JOINT LeftFoot
				{
					OFFSET 2.500000 -6.900000 0.000000
					CHANNELS 3 Zrotation Yrotation Xrotation
					JOINT LeftToeBase
					{
						OFFSET 0.200000 -0.500000 1.950000
						CHANNELS 3 Zrotation Yrotation Xrotation
						End Site
						{
							OFFSET 0.000000 0.000000 0.000000
						}
					}
				}
			}
		}
	}
	JOINT RHipJoint
	{
		OFFSET 0.000000 0.000000 0.000000
		CHANNELS 3 Zrotation Yrotation Xrotation
		JOINT RightUpLeg
		{
			OFFSET -1.800000 -1.400000 0.085000
			CHANNELS 3 Zrotation Yrotation Xrotation
			JOINT RightLeg
			{
				OFFSET -2.215000 -6.000000 0.000000
				CHANNELS 3 Zrotation Yrotation Xrotation
				JOINT RightFoot
				{
					OFFSET -2.500000 -6.900000 0.000000
					CHANNELS 3 Zrotation Yrotation Xrotation
					JOINT RightToeBase
					{
						OFFSET -0.200000 -0.500000 1.950000
						CHANNELS 3 Zrotation Yrotation Xrotation
						End Site
						{
							OFFSET 0.000000 0.000000 0.000000
						}
					}
				}
			}
		}
	}
	JOINT LowerBack
	{
		OFFSET 0.000000 0.000000 0.000000
		CHANNELS 3 Zrotation Yrotation Xrotation
		JOINT Spine
		{
			OFFSET -0.087000 1.940000 -0.288900
			CHANNELS 3 Zrotation Yrotation Xrotation
			JOINT Spine1
			{
				OFFSET 0.000000 1.950000 0.060000
				CHANNELS 3 Zrotation Yrotation Xrotation
				JOINT Neck
				{
					OFFSET 0.000000 0.000000 0.000000
					CHANNELS 3 Zrotation Yrotation Xrotation
					JOINT Neck1
					{
						OFFSET 0.000000 1.600000 0.340000
						CHANNELS 3 Zrotation Yrotation Xrotation
						JOINT Head
						{
							OFFSET 0.000000 1.667000 -0.240000
							CHANNELS 3 Zrotation Yrotation Xrotation
							End Site
							{
								OFFSET 0.000000 0.000000 0.000000
							}
						}
					}
				}
				JOINT LeftShoulder
				{
					OFFSET 0.000000 0.000000 0.000000
					CHANNELS 3 Zrotation Yrotation Xrotation
					JOINT LeftArm
					{
						OFFSET 2.700000 1.550000 -0.730000
						CHANNELS 3 Zrotation Yrotation Xrotation
						JOINT LeftForeArm
						{
							OFFSET 5.450000 0.000000 0.000000
							CHANNELS 3 Zrotation Yrotation Xrotation
							JOINT LeftHand
							{
								OFFSET 3.450000 0.000000 0.000000
								CHANNELS 3 Zrotation Yrotation Xrotation
								JOINT LeftHandIndex1
								{
									OFFSET 0.750000 0.000000 0.000000
									CHANNELS 3 Zrotation Yrotation Xrotation
									End Site
									{
										OFFSET 0.000000 0.000000 0.000000
									}
								}
							}
						}
					}
				}
				JOINT RightShoulder
				{
					OFFSET 0.000000 0.000000 0.000000
					CHANNELS 3 Zrotation Yrotation Xrotation
					JOINT RightArm
					{
						OFFSET -2.700000 1.550000 -0.730000
						CHANNELS 3 Zrotation Yrotation Xrotation
						JOINT RightForeArm
						{
							OFFSET -5.450000 0.000000 0.000000
							CHANNELS 3 Zrotation Yrotation Xrotation
							JOINT RightHand
							{
								OFFSET -3.450000 0.000000 0.000000
								CHANNELS 3 Zrotation Yrotation Xrotation
								JOINT RightHandIndex1
								{
									OFFSET -0.750000 0.000000 0.000000
									CHANNELS 3 Zrotation Yrotation Xrotation
									End Site
									{
										OFFSET 0.000000 0.000000 0.000000
									}
								}
							}
						}
					}
				}
			}
		}
	}
}
MOTION
Frames: 6
Frame Time: 0.016667
0.349400 15.470530 -1.516950 -0.314983 -19.271448 -6.338791 -15.114379 13.978583 2.290700 15.014212 -1.488613 -14.251100 1.012467 9.203701 39.182406 0.199577 7.439007 1.896187 0.191880 0.048510 0.193940 18.223573 -10.784303 2.918238 -20.349888 1.760244 -26.437619 11.670912 -10.398672 30.855580 -0.238899 -5.572562 2.240873 0.159790 0.214230 0.158320 -3.354051 -2.421555 -7.236960 6.163126 -2.233121 11.725110 -2.896889 -1.730149 5.434127 1.733166 -2.109794 -5.169739 -5.575121 7.566689 36.230049 -3.917730 8.420540 -2.013110 -26.970820 -2.878191 -0.015060 -38.611899 -7.247110 -1.686603 -30.560654 -24.124726 4.970032 -3.932579 3.232429 0.118110 0.243820 -0.093400 0.089890 23.807776 3.592517 2.014392 44.403105 5.123933 -6.208794 41.866541 44.570426 12.901876 2.272660 -1.764621 -0.159440 0.105750 0.003820 -0.146490 
0.334200 15.433000 -1.519250 -0.621183 -19.342514 -6.959335 -15.095357 13.940486 2.300151 15.737590 -1.465205 -14.266884 1.182774 9.489996 40.484619 0.231545 7.676531 1.794440 0.217100 0.072520 0.232420 18.243043 -10.749230 2.996214 -20.814903 1.956121 -26.574563 12.480863 -11.142755 32.352396 -0.318843 -5.892382 2.115661 0.169160 0.171550 0.158640 -3.416071 -2.374067 -7.356239 6.765979 -2.270371 12.828469 -3.409043 -1.639750 4.975830 1.933505 -2.009708 -4.966264 -5.441646 7.302712 37.068460 -4.518270 8.446760 -2.953020 -28.564695 -3.076242 -0.246061 -37.167740 -6.934864 -1.892940 -29.774074 -23.339337 4.613881 -3.900990 3.216084 0.146190 0.218340 -0.062100 0.078480 24.929415 3.660172 1.926877 43.804789 5.007695 -6.401261 42.161766 45.064329 13.192658 2.274688 -1.754870 -0.152070 0.102080 -0.008390 -0.163290 
0.298200 15.346500 -1.540240 -1.084675 -19.119337 -7.869297 -15.081373 13.841473 2.322654 16.791175 -1.544437 -15.017845 2.110718 9.810281 43.527789 0.309756 8.156810 1.606133 0.235930 0.091130 0.258180 18.273545 -10.591048 3.209394 -21.937778 2.435998 -27.127193 14.781765 -12.910164 35.058044 -0.482928 -6.600649 1.864755 0.173740 0.132750 0.149630 -3.502689 -2.365220 -7.610318 7.519659 -2.431672 14.814047 -4.107220 -1.568347 4.060084 2.122398 -1.970490 -4.914251 -5.461733 7.190991 38.538299 -4.608520 8.264210 -3.882490 -30.848395 -3.817820 -0.291967 -35.126719 -6.287191 -2.238653 -27.352231 -21.881292 3.789272 -3.850433 3.176380 0.186640 0.183710 -0.028510 0.069440 26.731887 4.348735 1.974163 42.823708 5.079044 -6.760215 41.995609 46.555264 13.701460 2.273069 -1.729216 -0.150600 0.111760 -0.014390 -0.177150 
0.258700 15.244120 -1.559220 -1.665476 -18.489871 -8.477709 -15.046403 13.700254 2.291998 17.661786 -1.696150 -15.431292 3.283844 9.787122 46.003952 0.384067 8.497339 1.473690 0.252760 0.109050 0.279380 18.330147 -10.416128 3.505050 -23.578432 2.795317 -27.793883 18.062288 -15.050427 36.962673 -0.669543 -7.364338 1.599309 0.173460 0.095090 0.147740 -3.667146 -2.258282 -7.855000 8.604673 -2.755482 16.451341 -5.188915 -1.664073 2.770450 2.400828 -1.483350 -4.733044 -4.555802 6.631741 40.138539 -4.526020 7.981840 -4.280510 -33.455883 -4.617659 -0.259287 -32.617698 -5.523472 -2.425253 -24.437891 -19.218171 2.741381 -3.796094 3.155763 0.209770 0.155730 -0.000230 0.061640 28.676541 4.664795 1.782167 42.668757 5.039327 -7.161062 37.704301 43.767659 11.136827 2.276573 -1.672232 -0.137660 0.103510 -0.024490 -0.184950 
0.217010 15.146530 -1.577750 -1.867555 -18.104207 -9.001528 -15.021769 13.587789 2.235412 18.200542 -1.728895 -15.571339 4.429445 9.698807 48.074716 0.455044 8.787272 1.373947 0.252790 0.104140 0.295080 18.381358 -10.215725 3.814310 -25.411082 3.169885 -28.658650 21.182750 -17.220096 38.764595 -0.858311 -8.104346 1.355038 0.162150 0.074440 0.147150 -3.802385 -2.217380 -8.065266 9.409128 -3.079815 17.752260 -6.282935 -1.784530 1.380201 2.623476 -1.406775 -4.739266 -4.249991 6.848776 40.947979 -4.683310 8.447210 -4.554760 -35.898344 -5.318575 0.040189 -30.406868 -4.065313 -2.795346 -21.258006 -17.718744 1.978183 -3.741576 3.142975 0.232200 0.139070 0.019520 0.053610 30.519084 5.256526 1.785885 42.429103 4.959635 -7.357155 34.692402 41.523333 9.449140 2.281268 -1.625057 -0.136350 0.100140 -0.027290 -0.194650 
0.165740 15.060490 -1.597550 -2.108027 -17.395459 -9.264622 -15.017571 13.465271 2.220728 18.839410 -1.785970 -16.425432 5.726629 9.531751 50.206200 0.540298 9.078698 1.278317 0.230790 0.074510 0.287630 18.416984 -10.014753 4.082631 -26.926879 3.575033 -29.497866 23.897703 -19.280872 40.457316 -1.026272 -8.773256 1.150472 0.135060 0.071170 0.147650 -3.880903 -2.182050 -8.276050 9.907854 -3.131836 18.743031 -6.920259 -1.658048 -0.081010 2.866046 -1.033585 -4.831672 -3.428452 6.730175 41.892172 -4.653000 8.732380 -3.723210 -38.122106 -5.902037 0.419453 -29.039408 -2.474183 -3.166208 -18.442720 -16.501994 1.398906 -3.701237 3.149146 0.232730 0.137350 0.019420 0.046880 32.148930 5.701650 1.861662 42.142239 4.412194 -7.662797 31.353841 39.054794 7.714368 2.286325 -1.591706 -0.133790 0.084870 -0.023100 -0.195550 
